# xmcd CD database file
#
# Track frame offsets:
#	150
#	13638
#	42439
#	56890
#	76432
#	92300
#	105370
#	121796
#	136029
#	154384
#
# Disc length: 2285 seconds
#
# Revision: 2
# Processed by: cddbd v1.5.2PL0 Copyright (c) Steve Scherf et al.
# Submitted via: CDex 1.51
#
DISCID=7208eb0a
DTITLE=Brothers Osborne - Port Saint Joe
DYEAR=2018
DGENRE=Country
TTITLE0=Slow Your Roll
TTITLE1=Shoot Me Straight
TTITLE2=I Don't Remember Me (Before You)
TTITLE3=Weed, Whiskey And Willie
TTITLE4=Tequila Again
TTITLE5=A Couple Wrongs Makin' It Alright
TTITLE6=Pushing Up Daisies (Love Alive)
TTITLE7=Drank Like Hank
TTITLE8=A Little Bit Trouble
TTITLE9=While You Still Can
EXTD=YEAR: 2018
EXTT0=
EXTT1=
EXTT2=
EXTT3=
EXTT4=
EXTT5=
EXTT6=
EXTT7=
EXTT8=
EXTT9=
PLAYORDER=
